# xmcd
#
# Track frame offsets: 
#        150
#        11877
#        28238
#        42047
#        58353
#        76589
#        93799
#        103995
#        114409
#        121824
#        131614
#        148383
#
# Disc length: 2245 seconds
#
# Revision: 0
# Processed by: cddbd v1.5.2PL0 Copyright (c) Steve Scherf et al.
# Submitted via: ExactAudioCopy v0.99pb3
#
DISCID=a308c30c
DTITLE=Various Artist - Thee Humbug #4 - The CD
DYEAR=2006
DGENRE=Thee Sheffield Phonographic Corporation
TTITLE0=The Yell - My Baby's Into Witchcraft (work in progress mix)
TTITLE1=Little Man Tate - What? What You Got (demo)
TTITLE2=¡Forward, Russia! - 14
TTITLE3=Umlaut - Lea Green (demo)
TTITLE4=The Scaramanga Six - Baggage
TTITLE5=Cannibal Sunset - Shalom (demo)
TTITLE6=Wet Dog - Train Track (demo)
TTITLE7=The Real Losers - Don't Leave Me Now
TTITLE8=Music Hall Interlude with John Inman
TTITLE9=Optimist Club - Red Wizard About To Die (demo)
TTITLE10=Navvy - Navvy (demo)
TTITLE11=Bear - Sunrise From Lhotse
EXTD=
EXTT0=
EXTT1=
EXTT2=
EXTT3=
EXTT4=
EXTT5=
EXTT6=
EXTT7=
EXTT8=
EXTT9=
EXTT10=
EXTT11=
PLAYORDER=
